<svg version="1.1" id="Layer_1" xmlns="http://www.w3.org/2000/svg" xmlns:xlink="http://www.w3.org/1999/xlink" x="0px"
     y="0px"
     width="100%" viewBox="0 0 558 447" enable-background="new 0 0 558 447" xml:space="preserve">
<path fill="#FFFFFF" opacity="1.000000" stroke="none"
      d="
M452.030762,325.082916
	C451.984650,337.191071 450.256989,348.881042 445.059113,360.049286
	C440.324707,370.221619 434.172943,379.246155 425.797546,386.628815
	C415.396210,395.797211 403.317444,402.104706 389.902222,405.478363
	C384.109924,406.934998 378.006592,407.808289 372.041534,407.824249
	C303.554230,408.007538 235.064224,408.265045 166.580383,407.762207
	C152.354141,407.657806 138.713409,403.509766 125.997360,395.831543
	C113.574814,388.330597 103.497330,378.712585 96.603050,366.508698
	C91.839325,358.076141 89.723923,348.029663 87.199753,338.499176
	C85.922989,333.678528 86.076996,328.403137 86.071915,323.332886
	C85.999695,251.178635 85.812073,179.023148 86.233688,106.871353
	C86.291679,96.948463 89.261833,87.201973 93.365181,77.646355
	C98.568214,65.529854 106.258766,55.925865 115.998924,47.639709
	C119.770050,44.431530 124.176208,41.969822 128.821152,39.302044
	C133.863480,37.957638 138.740982,37.216698 142.005890,33.201851
	C143.088120,32.807350 144.170334,32.412849 145.823471,32.244965
	C148.597961,31.707863 150.801559,30.944145 153.005142,30.180429
	C153.439362,30.123043 153.873566,30.065657 154.894501,30.259069
	C159.566040,30.340113 163.650803,30.024252 167.735703,30.022394
	C235.131332,29.991739 302.526978,30.010336 369.922577,29.953907
	C371.962067,29.952200 374.000946,29.259531 376.040131,28.889006
	C412.646057,30.048019 447.059967,61.359844 450.801086,98.682388
	C451.018219,99.837746 451.414062,100.423813 451.809906,101.009880
	C451.866302,103.682434 451.922699,106.354988 451.991455,109.742233
	C452.002533,110.637405 452.001251,110.817871 451.701599,111.291275
	C451.268738,112.894318 451.016937,114.204399 451.016571,115.514542
	C450.997559,183.450897 450.993256,251.387268 451.041718,319.323608
	C451.042847,320.883270 451.666626,322.442505 452.002106,324.272339
	C452.013062,324.722778 452.021912,324.902832 452.030762,325.082916
M234.953033,333.009521
	C268.268311,333.018768 301.584015,333.103912 334.898376,332.935272
	C338.790924,332.915588 342.925201,332.098358 346.520294,330.615448
	C359.417725,325.295380 366.508362,311.438690 363.690125,297.984314
	C360.886780,284.601044 349.420319,275.133362 335.337097,275.053436
	C310.517883,274.912598 285.697174,275.045929 260.877380,274.970398
	C257.575287,274.960358 254.274841,274.401031 250.519028,273.579285
	C242.945160,270.759827 238.151443,265.191498 235.058472,257.093231
	C234.694656,252.639603 234.025345,248.186691 234.015121,243.732254
	C233.929596,206.440292 234.027512,169.147949 233.940933,131.856003
	C233.888336,109.199699 212.318268,94.173515 191.340637,102.020905
	C178.868057,106.686699 171.075653,118.258553 171.067459,132.340744
	C171.040680,178.289963 171.050995,224.239212 171.068527,270.188446
	C171.069168,271.841431 171.295853,273.494385 171.312042,275.922913
	C171.482071,277.072296 171.696182,278.217072 171.815704,279.371704
	C175.129776,311.387207 201.757645,334.288544 234.953033,333.009521
z"/>
    <path fill="#F9F9F9" opacity="1.000000" stroke="none"
          d="
M375.826843,28.507105 
	C374.000946,29.259531 371.962067,29.952200 369.922577,29.953907 
	C302.526978,30.010336 235.131332,29.991739 167.735703,30.022394 
	C163.650803,30.024252 159.566040,30.340113 155.220245,30.204998 
	C158.045135,29.263266 161.107239,28.264334 164.221512,28.059711 
	C172.454544,27.518757 180.709625,27.050200 188.956924,27.033182 
	C234.603073,26.938993 280.249847,26.889307 325.895691,27.040258 
	C342.469330,27.095066 359.040985,27.746172 375.826843,28.507105 
z"/>
    <path fill="#F4F4F4" opacity="1.000000" stroke="none"
          d="
M452.000000,324.001923 
	C451.666626,322.442505 451.042847,320.883270 451.041718,319.323608 
	C450.993256,251.387268 450.997559,183.450897 451.016571,115.514542 
	C451.016937,114.204399 451.268738,112.894318 451.913696,111.292442 
	C452.424225,111.000671 452.848419,110.992325 452.848419,110.992325 
	C452.906311,112.152161 453.014801,113.312004 453.014862,114.471840 
	C453.018677,184.008408 453.013580,253.544968 452.716919,323.540405 
	C452.424469,323.999268 452.000000,324.001923 452.000000,324.001923 
z"/>
    <path fill="#F9F9F9" opacity="1.000000" stroke="none"
          d="
M141.629822,33.122864 
	C138.740982,37.216698 133.863480,37.957638 129.155334,39.170139 
	C133.058868,36.950790 137.156311,34.997337 141.629822,33.122864 
z"/>
    <path fill="#F9F9F9" opacity="1.000000" stroke="none"
          d="
M152.615616,30.099251 
	C150.801559,30.944145 148.597961,31.707863 146.178040,32.188545 
	C148.049835,31.276363 150.137955,30.647217 152.615616,30.099251 
z"/>
    <path fill="#F4F4F4" opacity="1.000000" stroke="none"
          d="
M451.907074,100.702164 
	C451.414062,100.423813 451.018219,99.837746 450.865143,99.104782 
	C451.406677,99.436745 451.705475,99.915596 451.907074,100.702164 
z"/>
    <path fill="#FFFFFF" opacity="1.000000" stroke="none"
          d="
M452.892242,110.722321 
	C452.848419,110.992325 452.424225,111.000671 452.212097,110.999512 
	C452.001251,110.817871 452.002533,110.637405 452.017334,110.186249 
	C452.332581,110.094475 452.634338,110.273392 452.892242,110.722321 
z"/>
    <path fill="#FFFFFF" opacity="1.000000" stroke="none"
          d="
M452.002136,324.272339 
	C452.000000,324.001923 452.424469,323.999268 452.636414,324.003418 
	C452.752258,324.319458 452.656128,324.631317 452.295349,325.013062 
	C452.021912,324.902832 452.013062,324.722778 452.002136,324.272339 
z"/>
    <path fill="#A9BAC8" opacity="1.000000" stroke="none"
          d="
M171.417175,275.147339 
	C171.295853,273.494385 171.069168,271.841431 171.068527,270.188446 
	C171.050995,224.239212 171.040680,178.289963 171.067459,132.340744 
	C171.075653,118.258553 178.868057,106.686699 191.340637,102.020905 
	C212.318268,94.173515 233.888336,109.199699 233.940933,131.856003 
	C234.027512,169.147949 233.929596,206.440292 234.015121,243.732254 
	C234.025345,248.186691 234.694656,252.639603 234.738434,257.799988 
	C234.266678,263.990509 234.114960,269.474274 233.968201,274.965393 
	C233.973145,274.972717 233.976608,274.974670 233.510223,274.979767 
	C212.501633,275.039032 191.959396,275.093201 171.417175,275.147339 
z"/>
    <path fill="#6781A3" opacity="1.000000" stroke="none"
          d="
M250.973633,274.096039 
	C254.274841,274.401031 257.575287,274.960358 260.877380,274.970398 
	C285.697174,275.045929 310.517883,274.912598 335.337097,275.053436 
	C349.420319,275.133362 360.886780,284.601044 363.690125,297.984314 
	C366.508362,311.438690 359.417725,325.295380 346.520294,330.615448 
	C342.925201,332.098358 338.790924,332.915588 334.898376,332.935272 
	C301.584015,333.103912 268.268311,333.018768 234.479797,332.480408 
	C233.996567,312.959076 233.986588,293.966858 233.976593,274.974670 
	C233.976608,274.974670 233.973145,274.972717 234.439209,274.979889 
	C240.261398,274.690033 245.617508,274.393036 250.973633,274.096039 
z"/>
    <path fill="#7F96B2" opacity="1.000000" stroke="none"
          d="
M233.510223,274.979767 
	C233.986588,293.966858 233.996567,312.959076 234.017624,332.409790 
	C201.757645,334.288544 175.129776,311.387207 171.815704,279.371704 
	C171.696182,278.217072 171.482071,277.072296 171.364609,275.535156 
	C191.959396,275.093201 212.501633,275.039032 233.510223,274.979767 
z"/>
    <path fill="#879BB1" opacity="1.000000" stroke="none"
          d="
M250.746338,273.837646 
	C245.617508,274.393036 240.261398,274.690033 234.434265,274.972534 
	C234.114960,269.474274 234.266678,263.990509 234.738037,258.224487 
	C238.151443,265.191498 242.945160,270.759827 250.746338,273.837646 
z"/>
</svg>